<svg width="21" height="21" viewBox="0 0 21 21" fill="none" xmlns="http://www.w3.org/2000/svg">
<g clip-path="url(#clip0_3520_576)">
<path d="M13.4227 3.20953C14.1753 2.40387 14.6843 1.28532 14.545 0.169922C13.4608 0.208613 12.1468 0.80634 11.3686 1.61193C10.671 2.32511 10.0602 3.46493 10.2232 4.55844C11.433 4.64028 12.669 4.01388 13.4227 3.20953ZM15.7317 10.9125C15.7086 8.41187 17.7114 7.21086 17.8002 7.15282C16.6741 5.45472 14.9205 5.22237 14.2959 5.19616C12.8027 5.03941 11.3843 6.10047 10.6262 6.10047C9.87117 6.10047 8.70329 5.21674 7.46483 5.24048C5.8367 5.2673 4.33652 6.21538 3.50034 7.71796C1.80903 10.7408 3.06684 15.2186 4.71493 17.6705C5.52059 18.8708 6.47985 20.2173 7.73951 20.1686C8.95547 20.1199 9.41387 19.3599 10.8809 19.3599C12.3486 19.3599 12.7595 20.1686 14.0435 20.1443C15.35 20.1199 16.1769 18.9208 16.9757 17.7167C17.9 16.3247 18.281 14.9769 18.3028 14.9089C18.2747 14.8926 15.7585 13.9027 15.7317 10.9125Z" fill="black"/>
</g>
<defs>
<clipPath id="clip0_3520_576">
<rect width="20" height="20" fill="white" transform="translate(0.5 0.169922)"/>
</clipPath>
</defs>
</svg>
